<?xml version="1.0" standalone="no"?>
<!DOCTYPE svg PUBLIC "-//W3C//DTD SVG 20010904//EN"
 "http://www.w3.org/TR/2001/REC-SVG-20010904/DTD/svg10.dtd">
<svg version="1.0" xmlns="http://www.w3.org/2000/svg"
 width="1736.000000pt" height="500.000000pt" viewBox="0 0 1736.000000 500.000000"
 preserveAspectRatio="xMidYMid meet">

<g transform="translate(0.000000,500.000000) scale(0.100000,-0.100000)"
fill="#000000" stroke="none">
<path d="M6800 3266 c0 -3 9 -29 20 -59 32 -86 40 -220 47 -752 6 -512 -5
-892 -28 -993 -10 -41 -10 -55 0 -65 17 -17 287 -20 805 -9 l429 10 59 63 c93
102 164 191 186 235 61 120 47 330 -30 477 -49 92 -127 156 -253 210 -121 51
-119 41 -15 100 160 90 249 319 185 473 -18 44 -80 110 -131 140 -140 82 -363
120 -874 148 -151 9 -303 18 -337 21 -35 3 -63 3 -63 1z m908 -290 c47 -15 56
-22 72 -60 40 -90 34 -310 -11 -404 -40 -81 -97 -92 -371 -76 l-105 7 -7 171
c-3 94 -9 220 -13 280 l-6 108 194 -5 c143 -3 208 -9 247 -21z m12 -776 c94
-15 147 -51 185 -125 28 -56 30 -65 30 -180 0 -109 -2 -125 -25 -170 -48 -92
-133 -115 -431 -115 l-186 0 -7 178 c-3 97 -9 232 -13 300 l-6 122 194 0 c107
0 223 -5 259 -10z"/>
<path d="M15733 3256 c-170 -33 -288 -90 -389 -191 -117 -115 -159 -222 -152
-389 3 -87 8 -110 34 -166 60 -127 156 -200 452 -341 321 -153 367 -181 398
-242 22 -42 23 -162 2 -202 -77 -143 -311 -174 -546 -73 -97 42 -167 89 -268
177 -43 39 -79 69 -81 68 -5 -6 19 -299 28 -340 15 -65 49 -101 128 -142 130
-65 161 -70 411 -69 336 1 409 21 527 142 77 78 124 151 161 250 35 93 37 228
4 324 -67 194 -181 288 -499 412 -310 120 -373 176 -373 326 0 93 15 119 88
158 199 106 386 77 642 -102 l95 -66 3 107 c6 199 -10 236 -121 288 -39 19
-108 44 -152 56 -103 26 -292 34 -392 15z"/>
<path d="M1109 3250 c-180 -4 -361 -11 -403 -15 -95 -8 -95 -8 -103 -190 -7
-146 0 -205 23 -205 8 0 54 16 102 35 139 57 229 76 395 82 l147 6 0 -109 c-1
-228 -20 -956 -30 -1119 -10 -154 -19 -232 -36 -306 -9 -43 29 -49 286 -49
275 0 276 0 243 82 -49 119 -65 344 -91 1251 l-7 247 125 0 c186 0 333 -26
449 -77 31 -14 66 -29 79 -34 l22 -9 0 210 0 210 -437 -2 c-241 -1 -585 -4
-764 -8z"/>
<path d="M3141 3249 c-120 -11 -155 -23 -187 -64 -32 -43 -98 -191 -236 -535
-60 -151 -170 -419 -243 -595 -112 -269 -254 -615 -272 -662 -4 -10 38 -13
190 -13 108 0 207 4 221 10 26 9 26 10 20 97 -7 93 2 159 36 274 l21 69 342 0
c306 0 346 -2 377 -18 71 -35 112 -181 91 -321 -7 -42 -15 -84 -17 -93 -5 -17
11 -18 248 -18 276 0 328 5 328 27 0 8 -32 82 -70 164 -39 82 -158 366 -264
632 -107 265 -247 611 -312 770 l-118 287 -30 -1 c-17 -1 -73 -6 -125 -10z
m54 -704 c62 -140 119 -299 140 -394 9 -36 18 -74 21 -85 6 -17 -4 -18 -243
-14 -153 3 -258 9 -275 16 l-27 11 15 53 c9 29 64 184 124 343 59 160 111 301
115 315 9 27 9 27 130 -245z"/>
<path d="M8608 3252 c-81 -10 -84 -15 -64 -114 19 -102 32 -247 46 -523 27
-537 42 -688 86 -826 61 -194 253 -371 459 -424 146 -38 410 -38 555 0 141 36
252 110 337 222 155 205 167 254 203 858 24 399 45 638 65 715 13 51 13 56 -5
71 -38 33 -403 36 -447 4 -15 -11 -16 -18 -5 -61 25 -100 43 -443 56 -1071 l5
-232 -105 -96 c-127 -117 -164 -135 -288 -142 -231 -14 -358 52 -447 232 -52
106 -67 195 -75 475 -10 334 18 665 65 759 43 85 30 125 -44 141 -55 12 -327
20 -397 12z"/>
<path d="M4315 3239 c-82 -17 -91 -36 -55 -131 29 -79 40 -270 40 -703 0 -531
-19 -870 -52 -962 -20 -55 -10 -58 200 -61 228 -4 232 -2 214 79 -16 73 -30
240 -42 512 -12 272 -13 767 -2 767 4 0 39 -78 76 -172 76 -192 426 -1144 426
-1158 0 -6 1 -10 3 -11 18 -4 374 -26 379 -23 3 2 30 75 59 162 95 286 448
1257 454 1250 2 -2 -1 -203 -6 -448 -9 -464 -23 -760 -41 -845 -24 -118 -32
-115 295 -115 141 0 257 3 257 6 0 3 -18 40 -40 82 -33 65 -41 95 -54 192 -28
207 -40 638 -28 937 14 308 30 436 66 513 14 30 26 63 26 72 0 46 -114 68
-350 68 -250 -1 -256 -8 -489 -646 -208 -573 -264 -714 -283 -714 -18 0 -79
152 -283 715 -116 321 -216 580 -227 592 -11 12 -41 27 -67 33 -62 15 -413 22
-476 9z"/>
<path d="M10620 3241 c-91 -10 -92 -13 -43 -125 14 -33 32 -100 39 -150 46
-304 42 -1059 -7 -1360 -7 -45 -25 -96 -50 -143 -22 -41 -39 -76 -39 -79 0 -3
124 -4 275 -2 190 2 278 7 286 15 8 8 7 27 -5 75 -20 80 -43 307 -52 507 l-7
154 95 -5 c76 -4 104 -10 132 -27 50 -31 134 -143 334 -442 197 -296 151 -264
398 -275 158 -7 214 -3 214 15 0 12 -265 409 -424 636 l-126 180 58 50 c116
101 225 212 263 269 80 119 101 277 51 389 -27 60 -110 148 -181 191 -127 76
-271 109 -546 126 -181 10 -573 11 -665 1z m851 -265 c63 -23 124 -86 150
-155 43 -113 10 -291 -69 -374 -65 -69 -173 -87 -414 -72 l-118 7 0 310 0 310
203 -4 c156 -4 212 -9 248 -22z"/>
<path d="M12372 3237 c-11 -12 -10 -25 2 -69 24 -83 36 -382 36 -893 -1 -488
-10 -733 -31 -816 -10 -39 -10 -52 0 -62 9 -9 79 -13 259 -15 302 -4 299 -5
260 84 -14 33 -31 88 -37 124 -61 357 -44 1211 31 1495 11 44 21 91 22 104 2
41 -57 52 -309 58 -191 5 -222 3 -233 -10z"/>
<path d="M13211 3236 c-9 -10 -8 -28 4 -71 30 -117 39 -346 39 -965 0 -602 -4
-680 -35 -758 -23 -56 -5 -62 195 -62 94 0 181 3 193 6 31 8 34 26 18 92 -20
82 -33 299 -46 757 -12 410 -8 555 15 555 13 0 264 -415 671 -1107 l178 -303
209 0 208 0 0 553 c0 810 14 1006 85 1202 19 54 35 101 35 106 0 20 -477 5
-497 -15 -3 -3 15 -52 40 -108 70 -158 72 -175 69 -648 -2 -228 -6 -450 -10
-493 l-7 -79 -82 139 c-44 76 -183 311 -308 523 -125 212 -268 451 -318 531
l-90 146 -60 7 c-33 3 -158 6 -277 6 -173 0 -220 -3 -229 -14z"/>
</g>
</svg>
